<?xml version="1.0" encoding="utf-8"?>
<!-- Generator: Adobe Illustrator 17.0.0, SVG Export Plug-In . SVG Version: 6.00 Build 0)  -->
<!DOCTYPE svg PUBLIC "-//W3C//DTD SVG 1.1//EN" "http://www.w3.org/Graphics/SVG/1.1/DTD/svg11.dtd">
<svg version="1.1" id="Layer_1" xmlns="http://www.w3.org/2000/svg" xmlns:xlink="http://www.w3.org/1999/xlink" x="0px" y="0px"
	 width="307.32px" height="82.787px" viewBox="0 0 307.32 82.787" enable-background="new 0 0 307.32 82.787" xml:space="preserve">
<g>
	<rect x="0" y="23.975" fill="#464C30" width="281.377" height="34.837"/>
</g>
<g>
	<path fill="#FFFFFF" d="M72.987,35.872h6.307v1.495h-4.606v3.468h4.402v1.496h-4.402v5.405h-1.7V35.872z"/>
	<path fill="#FFFFFF" d="M90.94,35.872h1.7v11.864h-1.7V35.872z"/>
	<path fill="#FFFFFF" d="M110.404,37.656c-0.867-0.34-1.343-0.492-2.227-0.492c-0.952,0-2.074,0.34-2.074,1.58
		c0,2.278,5.1,1.751,5.1,5.661c0,2.532-1.955,3.535-4.334,3.535c-0.833,0-1.649-0.238-2.431-0.493l0.17-1.58
		c0.578,0.237,1.598,0.577,2.465,0.577c0.969,0,2.329-0.544,2.329-1.938c0-2.651-5.1-1.921-5.1-5.609
		c0-2.107,1.666-3.229,3.808-3.229c0.782,0,1.717,0.136,2.533,0.425L110.404,37.656z"/>
	<path fill="#FFFFFF" d="M122.95,35.872h1.7v4.963h5.678v-4.963h1.699v11.864h-1.699v-5.405h-5.678v5.405h-1.7V35.872z"/>
	<path fill="#FFFFFF" d="M144.473,35.872h1.699V46.24h4.964v1.496h-6.663V35.872z"/>
	<path fill="#FFFFFF" d="M166.095,35.872h1.785l5.014,11.864h-1.853l-1.207-2.991h-5.813l-1.206,2.991h-1.785L166.095,35.872z
		 M166.928,37.47l-2.363,5.881h4.726L166.928,37.47z"/>
	<path fill="#FFFFFF" d="M183.861,35.872h3.213c2.464,0,4.164,0.799,4.164,2.991c0,1.632-0.952,2.448-2.447,2.822v0.033
		c1.614,0.137,2.753,1.19,2.753,2.856c0,2.55-2.107,3.161-4.521,3.161h-3.161V35.872z M185.56,40.938h0.936
		c1.648,0,3.042-0.153,3.042-1.904c0-1.41-1.206-1.768-2.192-1.768h-1.785V40.938z M185.56,46.343h1.275
		c1.529,0,2.906-0.323,2.906-1.921c0-1.836-1.614-2.091-3.076-2.091h-1.105V46.343z"/>
	<path fill="#FFFFFF" d="M209.088,37.656c-0.867-0.34-1.343-0.492-2.227-0.492c-0.952,0-2.074,0.34-2.074,1.58
		c0,2.278,5.1,1.751,5.1,5.661c0,2.532-1.955,3.535-4.335,3.535c-0.832,0-1.648-0.238-2.431-0.493l0.17-1.58
		c0.578,0.237,1.599,0.577,2.465,0.577c0.969,0,2.329-0.544,2.329-1.938c0-2.651-5.1-1.921-5.1-5.609
		c0-2.107,1.666-3.229,3.808-3.229c0.782,0,1.717,0.136,2.533,0.425L209.088,37.656z"/>
</g>
<g>
	<path fill="#FFFFFF" d="M25.326,38.698c1.179,0,1.828,1.107,1.828,3.205s-0.648,3.205-1.828,3.205S23.499,44,23.499,41.902
		S24.147,38.698,25.326,38.698z M25.326,44.46c0.72,0,1.035-0.793,1.035-2.558c0-1.764-0.315-2.557-1.035-2.557
		s-1.035,0.792-1.035,2.557C24.291,43.667,24.606,44.46,25.326,44.46z"/>
	<path fill="#FFFFFF" d="M31.329,43.622h-2.467v-0.756l2.26-4.105h0.963v4.213h0.684v0.648h-0.684v1.422h-0.756V43.622z
		 M31.329,39.553h-0.018l-1.783,3.421h1.801V39.553z"/>
</g>
<g>
	<path fill="#FFFFFF" d="M250.222,39.67l-0.801,0.9l-0.414-0.585l1.287-1.224h0.72v6.283h-0.792V39.67z"/>
	<path fill="#FFFFFF" d="M255.407,41.786c-0.766-0.369-1.054-1.018-1.054-1.558c0-0.774,0.604-1.53,1.702-1.53
		c1.098,0,1.701,0.756,1.701,1.53c0,0.54-0.288,1.188-1.045,1.558c0.712,0.288,1.171,0.801,1.171,1.602
		c0,0.973-0.693,1.72-1.827,1.72c-1.135,0-1.828-0.747-1.828-1.72C254.227,42.587,254.686,42.074,255.407,41.786z M256.109,44.46
		c0.576,0,0.981-0.46,0.981-1.107c0-0.576-0.307-0.938-1.09-1.297c-0.792,0.432-0.981,0.773-0.981,1.242
		C255.019,43.919,255.424,44.46,256.109,44.46z M256.127,41.479c0.495-0.351,0.838-0.783,0.838-1.251
		c0-0.459-0.388-0.882-0.909-0.882c-0.514,0-0.91,0.414-0.91,0.937C255.145,40.705,255.388,41.155,256.127,41.479z"/>
</g>
<g>
	<path fill="#15CEAA" d="M230.503,32.742l0.504-1.864l0.454,0.123l-0.361,1.338l1.327,0.357l0.344-1.273l0.453,0.123l-0.343,1.273
		l1.937,0.521l-0.142,0.525L230.503,32.742z"/>
	<path fill="#15CEAA" d="M231.743,28.705l0.194-0.51l4.047,1.54l-0.194,0.511L231.743,28.705z"/>
	<path fill="#15CEAA" d="M234.294,24.55c-0.203,0.127-0.389,0.332-0.51,0.569c-0.183,0.366-0.055,0.729,0.273,0.894
		c0.249,0.125,0.453,0.104,1.054-0.288c0.645-0.426,1.082-0.455,1.525-0.232c0.614,0.31,0.904,0.935,0.531,1.676
		c-0.156,0.311-0.371,0.57-0.574,0.726l-0.503-0.254c0.244-0.154,0.505-0.385,0.619-0.611c0.221-0.438,0.053-0.834-0.264-0.993
		c-0.299-0.149-0.51-0.159-1.087,0.202c-0.771,0.486-1.088,0.521-1.586,0.271c-0.637-0.32-0.724-0.975-0.429-1.562
		c0.129-0.254,0.32-0.498,0.479-0.634L234.294,24.55z"/>
	<path fill="#15CEAA" d="M235.067,21.931l0.312-0.447l1.515,1.057l0.865-1.24l-1.514-1.056l0.312-0.448l3.546,2.476l-0.311,0.447
		l-1.647-1.149l-0.864,1.24l1.646,1.149l-0.313,0.446L235.067,21.931z"/>
	<path fill="#15CEAA" d="M238.141,17.776l0.362-0.408l2.888,2.561l0.942-1.064l0.353,0.312l-1.305,1.473L238.141,17.776z"/>
	<path fill="#15CEAA" d="M242.256,13.667l3.9,2.341l-0.43,0.373l-1.002-0.623l-1.245,1.079l0.478,1.08l-0.412,0.357l-1.738-4.218
		L242.256,13.667z M244.309,15.494l-1.914-1.193l-0.009,0.008l0.897,2.075L244.309,15.494z"/>
	<path fill="#15CEAA" d="M245.116,11.432l0.92-0.599c0.701-0.457,1.259-0.271,1.606,0.265c0.258,0.396,0.223,0.854-0.074,1.194
		l0.007,0.01c0.433-0.199,0.931-0.049,1.262,0.461c0.328,0.504,0.303,1.215-0.487,1.73l-0.873,0.566L245.116,11.432z
		 M246.594,12.704l0.271-0.176c0.509-0.331,0.59-0.718,0.337-1.107c-0.203-0.312-0.559-0.449-1.037-0.139l-0.348,0.227
		L246.594,12.704z M247.69,14.389l0.389-0.255c0.489-0.316,0.503-0.763,0.279-1.105c-0.242-0.373-0.637-0.524-1.078-0.237
		l-0.442,0.288L247.69,14.389z"/>
	<path fill="#15CEAA" d="M251.188,8.728c-0.238-0.023-0.511,0.024-0.751,0.14c-0.367,0.178-0.488,0.543-0.33,0.874
		c0.12,0.251,0.296,0.359,1.011,0.415c0.77,0.059,1.133,0.302,1.348,0.75c0.298,0.619,0.145,1.291-0.604,1.649
		c-0.312,0.15-0.641,0.225-0.896,0.223l-0.244-0.508c0.288,0.027,0.635,0.005,0.864-0.104c0.44-0.212,0.551-0.628,0.397-0.946
		c-0.145-0.303-0.306-0.438-0.982-0.506c-0.908-0.087-1.18-0.252-1.421-0.755c-0.308-0.644,0.023-1.214,0.615-1.497
		c0.258-0.124,0.558-0.199,0.767-0.209L251.188,8.728z"/>
	<path fill="#15CEAA" d="M256.222,6.239l1.066-0.259c0.812-0.198,1.276,0.161,1.428,0.781c0.11,0.458-0.073,0.88-0.466,1.103
		l0.003,0.012c0.473-0.045,0.894,0.262,1.036,0.852c0.143,0.585-0.117,1.247-1.033,1.471l-1.012,0.246L256.222,6.239z M257.195,7.93
		l0.313-0.076c0.589-0.144,0.794-0.48,0.686-0.933c-0.089-0.361-0.379-0.609-0.934-0.476l-0.403,0.099L257.195,7.93z M257.67,9.881
		l0.451-0.109c0.566-0.138,0.727-0.554,0.631-0.951c-0.105-0.434-0.429-0.706-0.939-0.582L257.3,8.363L257.67,9.881z"/>
	<path fill="#15CEAA" d="M262.154,7.658l-1.553-2.364l0.617-0.064l1.151,1.807l0.757-2.007l0.598-0.063l-1.027,2.635l0.189,1.809
		l-0.543,0.059L262.154,7.658z"/>
	<path fill="#15CEAA" d="M268.858,5.03l0.937,0.11c0.571,0.065,0.882,0.239,1.107,0.44c0.352,0.31,0.701,0.899,0.588,1.866
		c-0.146,1.242-0.85,2.146-2.462,1.958l-0.672-0.079L268.858,5.03z M268.952,8.922l0.327,0.038c0.948,0.111,1.516-0.478,1.644-1.579
		c0.106-0.899-0.193-1.657-1.25-1.78l-0.327-0.039L268.952,8.922z"/>
	<path fill="#15CEAA" d="M274.114,5.853l1.95,0.506l-0.117,0.456l-1.423-0.368l-0.343,1.332l1.354,0.351l-0.118,0.455l-1.355-0.35
		l-0.385,1.487l1.5,0.388l-0.118,0.456l-2.027-0.524L274.114,5.853z"/>
	<path fill="#15CEAA" d="M278.46,7.144l0.509,0.199l-1.409,3.593l1.322,0.52l-0.173,0.438l-1.83-0.719L278.46,7.144z"/>
	<path fill="#15CEAA" d="M282.235,8.778l0.917,0.493c0.382,0.204,0.566,0.438,0.666,0.736c0.091,0.288,0.056,0.614-0.122,0.947
		c-0.4,0.742-1.042,0.903-1.85,0.47l-0.321-0.173l-0.857,1.593l-0.479-0.259L282.235,8.778z M281.735,10.858l0.263,0.141
		c0.584,0.313,0.942,0.155,1.172-0.27c0.282-0.523,0.099-0.89-0.393-1.154l-0.272-0.146L281.735,10.858z"/>
	<path fill="#15CEAA" d="M286.271,11.119l0.442,0.32l-1.083,1.495l1.226,0.888l1.082-1.496l0.442,0.32l-2.537,3.505l-0.441-0.32
		l1.177-1.627l-1.225-0.887l-1.177,1.627l-0.443-0.32L286.271,11.119z"/>
	<path fill="#15CEAA" d="M290.353,14.327l0.403,0.367l-2.92,3.196l-0.402-0.368L290.353,14.327z"/>
	<path fill="#15CEAA" d="M292.612,16.509l0.44,0.511l-1.637,3.567l0.008,0.01l2.703-2.333l0.341,0.394l-3.275,2.829l-0.441-0.513
		l1.618-3.551l-0.009-0.01l-2.684,2.317l-0.341-0.395L292.612,16.509z"/>
	<path fill="#15CEAA" d="M296.05,20.831l1.09,1.694l-0.396,0.255l-0.795-1.236l-1.157,0.743l0.757,1.179l-0.396,0.256l-0.758-1.179
		l-1.293,0.831l0.838,1.304l-0.396,0.255l-1.134-1.763L296.05,20.831z"/>
	<path fill="#15CEAA" d="M299.609,27.414l0.198,0.509l-3.595,1.401l0.516,1.324l-0.44,0.171l-0.713-1.832L299.609,27.414z"/>
	<path fill="#15CEAA" d="M300.938,31.26l0.146,0.525l-4.159,1.167l-0.147-0.524L300.938,31.26z"/>
	<path fill="#15CEAA" d="M301.691,34.253l0.342,1.987l-0.466,0.08l-0.249-1.448l-1.357,0.232l0.238,1.383l-0.464,0.08l-0.239-1.381
		l-1.517,0.261l0.264,1.528l-0.465,0.08l-0.355-2.067L301.691,34.253z"/>
	<path fill="#15CEAA" d="M299.671,41.593c-0.427,0.016-0.663-0.002-0.972-0.139c-0.365-0.168-0.688-0.535-0.71-1.16
		c-0.021-0.626,0.275-1.014,0.63-1.206c0.297-0.159,0.531-0.191,0.959-0.207l2.73-0.094l0.019,0.546l-2.811,0.096
		c-0.675,0.023-1.099,0.336-1.081,0.85c0.019,0.515,0.461,0.797,1.137,0.773l2.812-0.097l0.018,0.546L299.671,41.593z"/>
	<path fill="#15CEAA" d="M298.213,46.147c1.035,1.31,1.782,2.004,2.349,2.109c0.384,0.072,0.751-0.074,0.831-0.494
		c0.045-0.244-0.027-0.599-0.177-0.879l0.548,0.033c0.109,0.398,0.118,0.785,0.068,1.047c-0.122,0.658-0.687,0.982-1.271,0.873
		c-0.743-0.139-1.717-1.008-2.465-2.1l-0.307,1.646l-0.464-0.087l0.417-2.236L298.213,46.147z"/>
	<path fill="#15CEAA" d="M297.338,50.247c0.861,1.433,1.513,2.219,2.062,2.396c0.373,0.121,0.757,0.023,0.889-0.385
		c0.076-0.235,0.05-0.597-0.062-0.894l0.54,0.104c0.057,0.409,0.017,0.795-0.065,1.048c-0.206,0.639-0.809,0.886-1.376,0.703
		c-0.72-0.233-1.573-1.221-2.177-2.401l-0.517,1.595l-0.449-0.146l0.702-2.166L297.338,50.247z"/>
	<path fill="#15CEAA" d="M299.056,56.709c-0.226,0.489-0.81,0.704-1.299,0.477c-0.489-0.227-0.703-0.811-0.478-1.3
		c0.227-0.489,0.812-0.703,1.301-0.477C299.069,55.636,299.284,56.22,299.056,56.709z M297.595,56.032
		c-0.146,0.314-0.008,0.692,0.309,0.839c0.314,0.146,0.692,0.007,0.838-0.308c0.146-0.314,0.008-0.693-0.308-0.84
		C298.12,55.577,297.741,55.717,297.595,56.032z"/>
	<path fill="#15CEAA" d="M296.559,59.977l-0.238-0.795l0.492-0.03l0.253,1.197l-0.261,0.422l-3.683-2.272l0.286-0.464
		L296.559,59.977z"/>
	<path fill="#15CEAA" d="M292.171,61.069c-0.3,0.123-0.56,0.297-0.711,0.486c-0.296,0.366-0.29,0.904,0.12,1.235
		c0.343,0.275,0.773,0.216,1.104-0.194l0.253-0.313l0.348,0.28l-0.14,0.174c-0.425,0.526-0.389,0.986-0.04,1.266
		c0.333,0.268,0.748,0.197,1.033-0.155c0.144-0.179,0.271-0.483,0.31-0.77l0.428,0.28c-0.074,0.299-0.245,0.591-0.456,0.852
		c-0.424,0.526-1.029,0.724-1.595,0.269c-0.463-0.374-0.506-0.846-0.289-1.262l-0.01-0.008c-0.389,0.373-0.932,0.325-1.356-0.017
		c-0.531-0.428-0.68-1.145-0.088-1.879c0.198-0.246,0.485-0.494,0.706-0.619L292.171,61.069z"/>
	<path fill="#15CEAA" d="M292.131,67.204l-0.314,0.315l-1.02-1.015l0.313-0.316L292.131,67.204z"/>
	<path fill="#15CEAA" d="M286.512,67.335l1.32-1.072l0.329,0.405l0.573,3.179l-0.515,0.419l-1.831-2.255l-0.367,0.297l-0.28-0.347
		l0.366-0.297l-0.618-0.762l0.405-0.329L286.512,67.335z M288.281,69.514l0.009-0.009l-0.531-2.604l-0.964,0.781L288.281,69.514z"/>
	<path fill="#15CEAA" d="M285.001,71.727l0.143-0.816l0.453,0.192l-0.309,1.183l-0.421,0.262l-2.278-3.677l0.464-0.285
		L285.001,71.727z"/>
	<path fill="#15CEAA" d="M280.482,70.818l-0.537,0.259l-0.303-0.626l0.536-0.259L280.482,70.818z"/>
	<path fill="#15CEAA" d="M277.505,75.467l1.657-0.593l0.158,0.443l-2.146,0.769l-0.174-0.484l-0.023-4.04l0.565-0.202
		L277.505,75.467z"/>
	<path fill="#15CEAA" d="M273.566,77.372l-0.437,0.095l-0.308-1.405l0.437-0.096L273.566,77.372z M274.475,77.172l-0.436,0.096
		l-0.31-1.406l0.438-0.096L274.475,77.172z"/>
	<path fill="#15CEAA" d="M270.076,77.641l-0.675,0.052l-1.899-3.438l-0.014,0.001l0.273,3.562l-0.519,0.04l-0.332-4.317l0.676-0.051
		l1.897,3.412h0.013l-0.271-3.538l0.52-0.04L270.076,77.641z"/>
	<path fill="#15CEAA" d="M260.869,76.872l0.638-0.532l0.224,0.44l-1.002,0.705l-0.491-0.073l0.635-4.283l0.541,0.08L260.869,76.872z
		"/>
	<path fill="#15CEAA" d="M256.43,75.949l0.699-0.446l0.166,0.465l-1.082,0.572l-0.478-0.136l1.172-4.166l0.525,0.148L256.43,75.949z
		"/>
	<path fill="#15CEAA" d="M252.659,71.729l1.562,0.667l-0.205,0.479l-2.54,1.988l-0.609-0.262l1.139-2.667l-0.434-0.185l0.177-0.41
		l0.432,0.185l0.386-0.899l0.479,0.204L252.659,71.729z M251.558,74.304l0.011,0.006l2.054-1.684l-1.139-0.486L251.558,74.304z"/>
	<path fill="#15CEAA" d="M247.746,73.034c-0.467-0.27-0.628-0.87-0.359-1.337c0.271-0.466,0.871-0.628,1.338-0.358
		c0.466,0.269,0.628,0.869,0.358,1.336S248.212,73.304,247.746,73.034z M248.55,71.64c-0.301-0.174-0.689-0.069-0.863,0.231
		c-0.173,0.3-0.068,0.689,0.232,0.863c0.3,0.173,0.689,0.068,0.862-0.232C248.956,72.202,248.851,71.812,248.55,71.64z"/>
	<path fill="#15CEAA" d="M244.077,70.628c-0.65-0.486-0.552-1.364,0.312-2.522c0.863-1.158,1.679-1.502,2.33-1.016
		c0.651,0.485,0.553,1.364-0.312,2.522C245.542,70.77,244.728,71.114,244.077,70.628z M246.452,67.447
		c-0.397-0.297-0.898,0.011-1.626,0.984c-0.727,0.975-0.879,1.541-0.481,1.839c0.397,0.297,0.897-0.012,1.625-0.985
		S246.85,67.743,246.452,67.447z"/>
	<path fill="#15CEAA" d="M240.254,66.462c0.058,0.219,0.179,0.432,0.349,0.596c0.518,0.498,1.284,0.275,1.995-0.461l-0.01-0.009
		c-0.339,0.137-0.704,0.061-0.985-0.211c-0.525-0.508-0.346-1.266,0.128-1.756c0.663-0.687,1.387-0.651,1.89-0.165
		c0.666,0.642,0.373,1.445-0.497,2.346c-1.102,1.142-2.033,1.347-2.809,0.598c-0.188-0.181-0.345-0.401-0.431-0.589L240.254,66.462z
		 M243.297,64.765c-0.33-0.319-0.822-0.131-1.15,0.209c-0.318,0.33-0.492,0.833-0.163,1.15c0.334,0.323,0.831,0.131,1.149-0.199
		C243.461,65.586,243.631,65.087,243.297,64.765z"/>
	<path fill="#15CEAA" d="M237.867,65.171l-0.286-0.343l1.103-0.921l0.286,0.342L237.867,65.171z"/>
	<path fill="#15CEAA" d="M239.412,60.71c-0.032-0.322-0.121-0.621-0.256-0.821c-0.263-0.391-0.776-0.545-1.214-0.251
		c-0.365,0.244-0.435,0.674-0.141,1.111l0.225,0.332l-0.37,0.25l-0.124-0.185c-0.378-0.561-0.826-0.662-1.196-0.413
		c-0.354,0.239-0.409,0.656-0.156,1.031c0.127,0.189,0.38,0.4,0.643,0.523l-0.395,0.324c-0.263-0.158-0.491-0.408-0.678-0.686
		c-0.376-0.561-0.387-1.195,0.215-1.601c0.493-0.332,0.956-0.232,1.289,0.097l0.011-0.007c-0.241-0.481-0.036-0.985,0.417-1.29
		c0.565-0.38,1.292-0.31,1.817,0.473c0.177,0.262,0.328,0.608,0.382,0.854L239.412,60.71z"/>
	<path fill="#15CEAA" d="M233.484,56.984l0.789,1.575l-0.421,0.211l-1.022-2.041l0.46-0.23l4.012-0.51l0.27,0.537L233.484,56.984z"
		/>
	<path fill="#15CEAA" d="M235.312,53.231l-0.21-0.559l0.65-0.244l0.21,0.558L235.312,53.231z"/>
	<path fill="#15CEAA" d="M234.532,50.647c0.066-0.216,0.072-0.461,0.014-0.688c-0.181-0.696-0.952-0.905-1.941-0.647l0.003,0.012
		c0.361,0.06,0.632,0.314,0.731,0.693c0.184,0.707-0.365,1.259-1.023,1.431c-0.924,0.24-1.522-0.168-1.698-0.846
		c-0.232-0.893,0.436-1.425,1.646-1.739c1.535-0.399,2.435-0.089,2.706,0.954c0.065,0.252,0.085,0.521,0.061,0.727L234.532,50.647z
		 M232.88,50.033c-0.116-0.448-0.64-0.544-1.083-0.428c-0.456,0.118-0.861,0.454-0.744,0.903c0.115,0.443,0.633,0.539,1.088,0.422
		C232.585,50.814,232.998,50.478,232.88,50.033z"/>
	<path fill="#15CEAA" d="M229.416,45.767l-0.056-0.441l1.426-0.18l0.057,0.442L229.416,45.767z M229.532,46.69l-0.056-0.443
		l1.426-0.18l0.056,0.441L229.532,46.69z"/>
	<path fill="#15CEAA" d="M229.477,42.288l0.003-2.014l0.47,0.001l-0.002,1.467l1.375,0.003l0.002-1.4l0.471,0.002l-0.003,1.398
		l1.536,0.002l0.002-1.548l0.472,0.001l-0.004,2.093L229.477,42.288z"/>
</g>
<g>
	<path fill="#15CEAA" d="M265.926,82.787c-22.824,0-41.393-18.569-41.393-41.394S243.102,0,265.926,0s41.394,18.569,41.394,41.394
		S288.751,82.787,265.926,82.787z M265.926,0.7c-22.438,0-40.693,18.255-40.693,40.693s18.255,40.694,40.693,40.694
		s40.694-18.256,40.694-40.694S288.365,0.7,265.926,0.7z"/>
</g>
</svg>
