<svg enable-background="new 0 0 307.32 82.944" height="82.944" viewBox="0 0 307.32 82.944" width="307.32" xmlns="http://www.w3.org/2000/svg"><path d="m0 24.095h281.377v34.837h-281.377z" fill="#464c30"/><path d="m72.987 35.993h6.307v1.495h-4.606v3.468h4.402v1.496h-4.402v5.405h-1.7v-11.864z" fill="#fff"/><path d="m90.94 35.993h1.7v11.864h-1.7z" fill="#fff"/><path d="m110.404 37.777c-.867-.34-1.343-.492-2.227-.492-.952 0-2.074.34-2.074 1.58 0 2.278 5.1 1.751 5.1 5.661 0 2.532-1.955 3.535-4.334 3.535-.833 0-1.649-.238-2.431-.493l.17-1.58c.578.237 1.598.577 2.465.577.969 0 2.329-.544 2.329-1.938 0-2.651-5.1-1.921-5.1-5.609 0-2.107 1.666-3.229 3.808-3.229.782 0 1.717.136 2.533.425z" fill="#fff"/><path d="m122.95 35.993h1.7v4.963h5.678v-4.963h1.699v11.864h-1.699v-5.405h-5.678v5.405h-1.7z" fill="#fff"/><path d="m144.473 35.993h1.699v10.368h4.964v1.496h-6.663z" fill="#fff"/><path d="m166.095 35.993h1.785l5.014 11.864h-1.853l-1.207-2.991h-5.813l-1.206 2.991h-1.785zm.833 1.597-2.363 5.881h4.726z" fill="#fff"/><path d="m183.861 35.993h3.213c2.464 0 4.164.799 4.164 2.991 0 1.632-.952 2.448-2.447 2.822v.033c1.614.137 2.753 1.19 2.753 2.856 0 2.55-2.107 3.161-4.521 3.161h-3.161v-11.863zm1.699 5.065h.936c1.648 0 3.042-.153 3.042-1.904 0-1.41-1.206-1.768-2.192-1.768h-1.785v3.672zm0 5.405h1.275c1.529 0 2.906-.323 2.906-1.921 0-1.836-1.614-2.091-3.076-2.091h-1.105z" fill="#fff"/><path d="m209.088 37.777c-.867-.34-1.343-.492-2.227-.492-.952 0-2.074.34-2.074 1.58 0 2.278 5.1 1.751 5.1 5.661 0 2.532-1.955 3.535-4.335 3.535-.832 0-1.648-.238-2.431-.493l.17-1.58c.578.237 1.599.577 2.465.577.969 0 2.329-.544 2.329-1.938 0-2.651-5.1-1.921-5.1-5.609 0-2.107 1.666-3.229 3.808-3.229.782 0 1.717.136 2.533.425z" fill="#fff"/><path d="m25.326 38.818c1.179 0 1.828 1.107 1.828 3.205s-.648 3.205-1.828 3.205-1.828-1.107-1.828-3.205.649-3.205 1.828-3.205zm0 5.762c.72 0 1.035-.793 1.035-2.558 0-1.764-.315-2.557-1.035-2.557s-1.035.792-1.035 2.557.315 2.558 1.035 2.558z" fill="#fff"/><path d="m31.329 43.743h-2.467v-.756l2.26-4.105h.963v4.213h.684v.648h-.684v1.422h-.756zm0-4.07h-.018l-1.783 3.421h1.801z" fill="#fff"/><path d="m250.222 39.79-.801.9-.414-.585 1.287-1.224h.72v6.283h-.792z" fill="#fff"/><path d="m255.407 41.906c-.766-.369-1.054-1.018-1.054-1.558 0-.774.604-1.53 1.702-1.53s1.701.756 1.701 1.53c0 .54-.288 1.188-1.045 1.558.712.288 1.171.801 1.171 1.602 0 .973-.693 1.72-1.827 1.72-1.135 0-1.828-.747-1.828-1.72 0-.801.459-1.314 1.18-1.602zm.702 2.674c.576 0 .981-.46.981-1.107 0-.576-.307-.938-1.09-1.297-.792.432-.981.773-.981 1.242 0 .621.405 1.162 1.09 1.162zm.018-2.98c.495-.351.838-.783.838-1.251 0-.459-.388-.882-.909-.882-.514 0-.91.414-.91.937-.001.422.242.872.981 1.196z" fill="#fff"/><g fill="#15ceaa"><path d="m248.156 8.495 1.148-.552c.876-.421 1.489-.126 1.811.543.237.493.129 1.017-.263 1.364l.007.014c.527-.166 1.077.081 1.383.716.303.63.168 1.446-.818 1.92l-1.09.524zm1.513 1.685.338-.161c.636-.306.787-.739.553-1.226-.188-.39-.576-.601-1.173-.313l-.436.208zm1.011 2.102.486-.234c.61-.293.692-.804.486-1.232-.225-.466-.655-.699-1.207-.433l-.552.265z"/><path d="m255.45 8.658-2.271-2.375.691-.203 1.694 1.822.441-2.452.671-.197-.619 3.226.598 2.025-.609.18z"/><path d="m263.204 4.29 1.095-.021c.671-.013 1.056.139 1.348.334.452.303.947.927.969 2.059.027 1.454-.642 2.605-2.529 2.642l-.785.016zm.72 4.468.382-.006c1.109-.021 1.671-.79 1.647-2.079-.021-1.052-.483-1.879-1.723-1.854l-.382.007z"/><path d="m269.642 4.47 2.318.333-.078.542-1.69-.242-.228 1.583 1.611.232-.078.542-1.612-.232-.254 1.769 1.782.257-.077.542-2.411-.347z"/><path d="m275.089 5.514.606.179-1.271 4.294 1.58.468-.155.523-2.188-.648z"/><path d="m279.99 7.198 1.097.509c.457.213.687.47.821.812.126.328.107.708-.077 1.105-.413.89-1.147 1.119-2.113.67l-.385-.179-.887 1.906-.574-.267zm-.439 2.446.313.146c.698.325 1.104.116 1.342-.394.291-.626.054-1.038-.533-1.312l-.327-.151z"/><path d="m285.09 9.831.524.357-1.208 1.775 1.454.989 1.208-1.776.524.356-2.828 4.16-.524-.356 1.312-1.932-1.454-.988-1.312 1.932-.524-.357z"/><path d="m290.111 13.622.471.425-3.371 3.729-.471-.425z"/><path d="m292.941 16.366.502.603-1.975 4.108.01.011 3.186-2.653.387.465-3.86 3.216-.502-.604 1.952-4.089-.01-.011-3.163 2.635-.387-.465z"/><path d="m296.961 21.68 1.183 2.021-.473.276-.862-1.474-1.38.808.821 1.404-.473.276-.821-1.404-1.542.902.909 1.554-.473.276-1.229-2.101z"/><path d="m300.866 30.127.177.608-4.303 1.25.46 1.585-.525.152-.637-2.193z"/><path d="m302.058 35.054.104.626-4.962.817-.103-.626z"/><path d="m302.535 38.865.095 2.34-.547.023-.069-1.707-1.598.064.065 1.628-.547.021-.065-1.626-1.786.071.073 1.8-.547.022-.099-2.434z"/><path d="m298.968 47.242c-.493-.061-.762-.125-1.09-.342-.389-.258-.69-.74-.6-1.461.091-.723.503-1.113.944-1.268.371-.127.646-.121 1.14-.059l3.151.396-.079.629-3.244-.408c-.779-.1-1.323.182-1.397.773-.075.594.382 1 1.16 1.098l3.245.41-.079.629z"/><path d="m296.209 52.564c.861 1.736 1.542 2.705 2.16 2.961.418.174.871.096 1.062-.361.11-.268.112-.686.011-1.039l.615.168c.027.479-.055.922-.174 1.205-.297.719-1.017.951-1.654.686-.811-.336-1.706-1.557-2.294-2.977l-.744 1.795-.505-.211 1.012-2.439z"/><path d="m294.139 57.132c.585 1.85 1.109 2.912 1.682 3.262.388.234.847.229 1.105-.195.15-.246.217-.66.171-1.027l.582.262c-.047.479-.196.902-.356 1.166-.405.664-1.152.783-1.742.424-.75-.459-1.448-1.803-1.811-3.299l-1.013 1.662-.468-.285 1.376-2.256z"/><path d="m294.128 65.111c-.398.482-1.118.551-1.602.152s-.552-1.117-.153-1.602c.398-.482 1.119-.553 1.602-.152.483.399.552 1.117.153 1.602zm-1.445-1.192c-.256.311-.212.777.1 1.033.311.256.777.213 1.034-.098.257-.312.212-.779-.099-1.035-.311-.257-.777-.212-1.035.1z"/><path d="m290.093 68.24-.01-.963.56.123-.104 1.418-.426.387-3.379-3.721.469-.426z"/><path d="m284.7 68.113c-.376.031-.725.131-.959.285-.458.303-.644.9-.306 1.41.281.428.778.514 1.29.178l.392-.258.285.434-.217.143c-.656.432-.779.953-.493 1.385.273.418.759.486 1.198.195.223-.146.47-.438.615-.742l.374.463c-.188.305-.481.566-.807.781-.655.432-1.396.436-1.859-.27-.38-.576-.26-1.113.126-1.496l-.008-.014c-.561.275-1.146.029-1.494-.5-.436-.662-.346-1.506.569-2.109.307-.201.712-.373 1-.436z"/><path d="m282.167 75.015-.465.229-.734-1.5.466-.229z"/><path d="m275.75 73.044 1.867-.631.194.572-.661 3.686-.729.246-1.077-3.189-.518.174-.166-.488.518-.176-.363-1.078.572-.191zm1.041 3.08.014-.004.475-3.047-1.363.461z"/><path d="m272.017 77.245.507-.822.408.404-.846 1.145-.567.098-.871-4.953.625-.109z"/><path d="m267.316 74.292-.691.031-.037-.805.69-.031z"/><path d="m261.776 77.845 2.039.164-.044.545-2.642-.211.048-.596 1.903-4.291.696.055z"/><path d="m256.385 77.826-.503-.121.393-1.621.503.121zm1.048.253-.503-.121.393-1.623.504.123z"/><path d="m252.279 76.195-.721-.312-.095-4.559-.013-.006-1.645 3.809-.556-.24 1.992-4.615.721.311.106 4.533.014.006 1.632-3.783.556.24z"/><path d="m242.885 70.001.95-.162-.034.574-1.415.119-.45-.359 3.141-3.924.494.396z"/><path d="m238.765 66.208.964-.016-.121.561-1.418-.096-.39-.426 3.706-3.398.429.467z"/><path d="m237.555 59.546 1.098 1.639-.503.336-3.733.326-.428-.641 2.799-1.875-.304-.453.431-.289.305.455.944-.633.337.502zm-2.705 1.811.008.014 3.066-.34-.801-1.195z"/><path d="m231.844 57.388c-.27-.566-.026-1.248.539-1.516.566-.27 1.248-.027 1.518.539.269.566.026 1.246-.54 1.518-.567.268-1.249.025-1.517-.541zm1.691-.803c-.173-.365-.614-.521-.979-.35-.364.174-.521.615-.349.98.173.363.614.52.979.348.366-.173.523-.614.349-.978z"/><path d="m229.882 52.337c-.276-.902.419-1.658 2.023-2.148 1.604-.494 2.604-.258 2.881.645s-.418 1.658-2.023 2.15-2.605.258-2.881-.647zm4.408-1.351c-.169-.551-.849-.605-2.199-.191s-1.882.842-1.713 1.391c.169.553.849.607 2.199.193 1.35-.415 1.882-.843 1.713-1.393z"/><path d="m229.187 45.535c-.102.24-.138.523-.096.795.127.826.994 1.158 2.169.977l-.002-.014c-.411-.113-.694-.439-.764-.889-.13-.84.569-1.414 1.353-1.533 1.097-.17 1.741.371 1.865 1.176.163 1.061-.673 1.598-2.11 1.82-1.823.279-2.827-.186-3.019-1.424-.046-.299-.036-.613.016-.848zm4.009.568c-.081-.525-.669-.697-1.21-.613-.526.08-1.042.422-.961.949.082.535.677.705 1.203.623.541-.084 1.051-.424.968-.959z"/><path d="m227.93 42.339-.01-.519 1.672-.031.01.519z"/><path d="m232.606 39.231c.214-.31.359-.642.39-.921.059-.543-.283-1.066-.892-1.132-.509-.056-.892.272-.958.881l-.051.466-.515-.057.027-.257c.085-.781-.238-1.207-.754-1.263-.494-.054-.855.276-.912.799-.028.266.039.642.18.946l-.593-.006c-.116-.339-.131-.73-.09-1.118.085-.78.553-1.354 1.391-1.262.688.075 1.024.51 1.074 1.051l.014.002c.146-.606.706-.901 1.337-.833.787.085 1.381.693 1.263 1.781-.04.365-.165.786-.302 1.047z"/><path d="m230.277 31.222-.53 1.976-.528-.142.688-2.561.576.155 3.874 2.65-.181.676z"/><path d="m234.851 29.22.263-.64.745.308-.263.639z"/><path d="m236.339 26.229c.229-.126.434-.323.568-.562.414-.724-.058-1.524-1.089-2.112l-.007.013c.252.343.271.775.046 1.169-.421.738-1.324.752-2.012.359-.962-.549-1.129-1.373-.726-2.078.53-.932 1.518-.832 2.78-.111 1.599.912 2.096 1.899 1.475 2.986-.149.264-.353.503-.538.653zm-.875-1.848c.269-.468-.091-.972-.554-1.235-.475-.271-1.084-.321-1.352.147-.264.463.089.962.563 1.233.464.264 1.079.317 1.343-.145z"/><path d="m235.617 18.624.324-.405 1.308 1.043-.324.406zm.675-.845.323-.406 1.308 1.043-.323.406z"/><path d="m239.464 14.835 1.721-1.586.371.402-1.255 1.157 1.084 1.175 1.196-1.103.371.4-1.196 1.104 1.211 1.312 1.322-1.221.371.401-1.788 1.65z"/></g><circle cx="265.435" cy="41.431" fill="none" r="40.932" stroke="#15ceaa" stroke-miterlimit="10" stroke-width=".7"/></svg>