<?xml version="1.0" encoding="utf-8"?>
<!-- Generator: Adobe Illustrator 17.0.0, SVG Export Plug-In . SVG Version: 6.00 Build 0)  -->
<!DOCTYPE svg PUBLIC "-//W3C//DTD SVG 1.1//EN" "http://www.w3.org/Graphics/SVG/1.1/DTD/svg11.dtd">
<svg version="1.1" id="Layer_1" xmlns="http://www.w3.org/2000/svg" xmlns:xlink="http://www.w3.org/1999/xlink" x="0px" y="0px"
	 width="523.372px" height="34.837px" viewBox="0 0 523.372 34.837" enable-background="new 0 0 523.372 34.837"
	 xml:space="preserve">
<rect x="0" y="0" width="523.372" height="34.837"/>
<rect x="96.291" y="9.329" fill="none" width="331.677" height="20.091"/>
<g enable-background="new    ">
	<path fill="#FFFFFF" d="M98.666,11.897h2.805l3.723,9.859l3.655-9.859h2.805v11.865h-1.7V13.495h-0.034l-3.927,10.266h-1.666
		L100.4,13.495h-0.034v10.266h-1.7V11.897z"/>
	<path fill="#FFFFFF" d="M127.447,11.897h1.785l5.015,11.865h-1.853l-1.207-2.992h-5.813l-1.207,2.992h-1.785L127.447,11.897z
		 M128.28,13.495l-2.363,5.88h4.726L128.28,13.495z"/>
	<path fill="#FFFFFF" d="M144.855,11.897h3.502c3.519,0,6.323,2.176,6.323,5.831c0,3.977-2.414,6.034-6.323,6.034h-3.502V11.897z
		 M146.555,22.265h1.785c2.924,0,4.539-1.41,4.539-4.47c0-2.771-1.887-4.402-4.334-4.402h-1.989V22.265z"/>
	<path fill="#FFFFFF" d="M166.309,11.897h6.646v1.496h-4.946v3.468h4.504v1.496h-4.504v3.909h4.946v1.496h-6.646V11.897z"/>
	<path fill="#FFFFFF" d="M198.388,11.897h1.7v11.865h-1.7V11.897z"/>
	<path fill="#FFFFFF" d="M212.09,11.897h2.312l5.235,9.553h0.034v-9.553h1.7v11.865h-2.176l-5.372-9.756h-0.034v9.756h-1.7V11.897z"
		/>
	<path fill="#FFFFFF" d="M247.177,11.897h1.7v4.964h5.677v-4.964h1.7v11.865h-1.7v-5.405h-5.677v5.405h-1.7V11.897z"/>
	<path fill="#FFFFFF" d="M273.458,11.693c3.604,0,5.712,2.617,5.712,6.136c0,3.603-2.092,6.136-5.712,6.136
		s-5.712-2.533-5.712-6.136C267.747,14.311,269.855,11.693,273.458,11.693z M273.458,22.469c2.737,0,3.909-2.277,3.909-4.64
		c0-2.413-1.291-4.657-3.909-4.641c-2.618-0.017-3.909,2.228-3.909,4.641C269.549,20.192,270.721,22.469,273.458,22.469z"/>
	<path fill="#FFFFFF" d="M290.561,11.897h2.312l5.234,9.553h0.035v-9.553h1.699v11.865h-2.176l-5.371-9.756h-0.034v9.756h-1.7
		V11.897z"/>
	<path fill="#FFFFFF" d="M320.854,14.005c-0.833-0.544-1.734-0.816-3.264-0.816c-2.736,0-4.556,1.989-4.556,4.641
		c0,2.788,2.006,4.64,4.471,4.64c1.173,0,1.479-0.119,1.903-0.204v-3.604h-2.498v-1.393h4.198v6.169
		c-0.646,0.222-1.768,0.527-3.62,0.527c-3.758,0-6.256-2.414-6.256-6.187c0-3.654,2.652-6.085,6.272-6.085
		c1.733,0,2.499,0.255,3.484,0.595L320.854,14.005z"/>
	<path fill="#FFFFFF" d="M346.915,11.897h1.7v5.219l5.065-5.219h2.261l-5.576,5.609l6.018,6.255h-2.481l-5.286-5.813v5.813h-1.7
		V11.897z"/>
	<path fill="#FFFFFF" d="M372.262,11.693c3.604,0,5.711,2.617,5.711,6.136c0,3.603-2.09,6.136-5.711,6.136s-5.711-2.533-5.711-6.136
		C366.551,14.311,368.659,11.693,372.262,11.693z M372.262,22.469c2.736,0,3.91-2.277,3.91-4.64c0-2.413-1.293-4.657-3.91-4.641
		c-2.617-0.017-3.91,2.228-3.91,4.641C368.352,20.192,369.526,22.469,372.262,22.469z"/>
	<path fill="#FFFFFF" d="M389.364,11.897h2.312l5.235,9.553h0.034v-9.553h1.699v11.865h-2.176l-5.371-9.756h-0.033v9.756h-1.701
		V11.897z"/>
	<path fill="#FFFFFF" d="M419.658,14.005c-0.833-0.544-1.733-0.816-3.264-0.816c-2.737,0-4.556,1.989-4.556,4.641
		c0,2.788,2.006,4.64,4.471,4.64c1.173,0,1.479-0.119,1.904-0.204v-3.604h-2.5v-1.393h4.199v6.169
		c-0.646,0.222-1.768,0.527-3.621,0.527c-3.756,0-6.255-2.414-6.255-6.187c0-3.654,2.651-6.085,6.272-6.085
		c1.734,0,2.498,0.255,3.484,0.595L419.658,14.005z"/>
</g>
<g enable-background="new    ">
	<path fill="#FFFFFF" d="M46.324,14.723c1.18,0,1.828,1.107,1.828,3.206c0,2.098-0.648,3.205-1.828,3.205
		c-1.179,0-1.827-1.107-1.827-3.205C44.497,15.83,45.145,14.723,46.324,14.723z M46.324,20.485c0.721,0,1.035-0.792,1.035-2.557
		c0-1.765-0.314-2.557-1.035-2.557c-0.72,0-1.035,0.792-1.035,2.557C45.289,19.693,45.604,20.485,46.324,20.485z"/>
	<path fill="#FFFFFF" d="M50.13,20.214c0.279,0.171,0.621,0.271,0.963,0.271c1.045,0,1.621-1.009,1.621-2.494h-0.019
		c-0.216,0.486-0.675,0.774-1.242,0.774c-1.062,0-1.639-0.973-1.639-1.963c0-1.386,0.793-2.079,1.81-2.079
		c1.342,0,1.846,1.134,1.846,2.953c0,2.305-0.765,3.458-2.331,3.458c-0.379,0-0.766-0.072-1.045-0.181L50.13,20.214z M51.598,18.117
		c0.675,0,0.999-0.703,0.999-1.369c0-0.685-0.324-1.377-0.999-1.377c-0.667,0-0.99,0.692-0.99,1.377
		C50.608,17.414,50.931,18.117,51.598,18.117z"/>
</g>
<g enable-background="new    ">
	<path fill="#FFFFFF" d="M471.22,15.694l-0.802,0.9l-0.414-0.585l1.288-1.225h0.72v6.285h-0.792V15.694z"/>
	<path fill="#FFFFFF" d="M477.394,19.647h-2.467v-0.756l2.26-4.106h0.964V19h0.684v0.647h-0.684v1.423h-0.757V19.647z
		 M477.394,15.578h-0.018L475.593,19h1.801V15.578z"/>
</g>
</svg>
