<svg width="525" height="40" viewBox="0 0 525 40" fill="none" xmlns="http://www.w3.org/2000/svg">
<rect width="525" height="40" fill="black"/>
<path d="M27.75 23.1193C27.108 23.1193 26.5611 22.9446 26.1094 22.5952C25.6577 22.2429 25.3125 21.733 25.0739 21.0653C24.8352 20.3949 24.7159 19.5852 24.7159 18.6364C24.7159 17.6932 24.8352 16.8878 25.0739 16.2202C25.3153 15.5497 25.6619 15.0384 26.1136 14.6861C26.5682 14.331 27.1136 14.1534 27.75 14.1534C28.3864 14.1534 28.9304 14.331 29.3821 14.6861C29.8366 15.0384 30.1832 15.5497 30.4219 16.2202C30.6634 16.8878 30.7841 17.6932 30.7841 18.6364C30.7841 19.5852 30.6648 20.3949 30.4261 21.0653C30.1875 21.733 29.8423 22.2429 29.3906 22.5952C28.9389 22.9446 28.392 23.1193 27.75 23.1193ZM27.75 22.1818C28.3864 22.1818 28.8807 21.875 29.233 21.2614C29.5852 20.6477 29.7614 19.7727 29.7614 18.6364C29.7614 17.8807 29.6804 17.2372 29.5185 16.706C29.3594 16.1747 29.1293 15.7699 28.8281 15.4915C28.5298 15.2131 28.1705 15.0739 27.75 15.0739C27.1193 15.0739 26.6264 15.3849 26.2713 16.0071C25.9162 16.6264 25.7386 17.5028 25.7386 18.6364C25.7386 19.392 25.8182 20.0341 25.9773 20.5625C26.1364 21.0909 26.3651 21.4929 26.6634 21.7685C26.9645 22.044 27.3267 22.1818 27.75 22.1818ZM32.4034 23V22.233L35.2841 19.0795C35.6222 18.7102 35.9006 18.3892 36.1193 18.1165C36.3381 17.8409 36.5 17.5824 36.6051 17.3409C36.7131 17.0966 36.767 16.8409 36.767 16.5739C36.767 16.267 36.6932 16.0014 36.5455 15.777C36.4006 15.5526 36.2017 15.3793 35.9489 15.2571C35.696 15.1349 35.4119 15.0739 35.0966 15.0739C34.7614 15.0739 34.4688 15.1435 34.2188 15.2827C33.9716 15.419 33.7798 15.6108 33.6435 15.858C33.5099 16.1051 33.4432 16.3949 33.4432 16.7273H32.4375C32.4375 16.2159 32.5554 15.767 32.7912 15.3807C33.027 14.9943 33.348 14.6932 33.7543 14.4773C34.1634 14.2614 34.6222 14.1534 35.1307 14.1534C35.642 14.1534 36.0952 14.2614 36.4901 14.4773C36.8849 14.6932 37.1946 14.9844 37.419 15.3509C37.6435 15.7173 37.7557 16.125 37.7557 16.5739C37.7557 16.8949 37.6974 17.2088 37.581 17.5156C37.4673 17.8196 37.2685 18.1591 36.9844 18.5341C36.7031 18.9062 36.3125 19.3608 35.8125 19.8977L33.8523 21.9943V22.0625H37.9091V23H32.4034Z" fill="white"/>
<path d="M490.972 14.2727V23H489.915V15.3807H489.864L487.733 16.7955V15.7216L489.915 14.2727H490.972ZM493.277 21.2102V20.3409L497.112 14.2727H497.743V15.6193H497.317L494.419 20.2045V20.2727H499.584V21.2102H493.277ZM497.385 23V20.946V20.5412V14.2727H498.391V23H497.385Z" fill="white"/>
<path d="M116.321 25V14.0909H122.862V15.2628H117.642V18.9489H122.372V20.1207H117.642V25H116.321ZM130.046 14.0909V25H128.725V14.0909H130.046ZM142.26 16.8182C142.196 16.2784 141.937 15.8594 141.483 15.5611C141.028 15.2628 140.471 15.1136 139.81 15.1136C139.327 15.1136 138.905 15.1918 138.542 15.348C138.184 15.5043 137.903 15.7191 137.701 15.9925C137.502 16.266 137.402 16.5767 137.402 16.9247C137.402 17.2159 137.472 17.4663 137.61 17.6758C137.752 17.8817 137.933 18.054 138.153 18.1925C138.374 18.3274 138.604 18.4393 138.846 18.5281C139.087 18.6133 139.309 18.6825 139.512 18.7358L140.62 19.0341C140.904 19.1087 141.22 19.2116 141.568 19.343C141.919 19.4744 142.255 19.6538 142.575 19.881C142.898 20.1048 143.164 20.3924 143.374 20.744C143.583 21.0955 143.688 21.527 143.688 22.0384C143.688 22.6278 143.533 23.1605 143.225 23.6364C142.919 24.1122 142.472 24.4904 141.882 24.771C141.296 25.0515 140.584 25.1918 139.746 25.1918C138.965 25.1918 138.288 25.0657 137.717 24.8136C137.149 24.5614 136.701 24.2099 136.374 23.7589C136.051 23.3079 135.868 22.7841 135.826 22.1875H137.189C137.225 22.5994 137.363 22.9403 137.605 23.2102C137.85 23.4766 138.159 23.6754 138.532 23.8068C138.908 23.9347 139.313 23.9986 139.746 23.9986C140.25 23.9986 140.703 23.9169 141.104 23.7536C141.506 23.5866 141.824 23.3558 142.058 23.0611C142.292 22.7628 142.41 22.4148 142.41 22.017C142.41 21.6548 142.308 21.3601 142.106 21.1328C141.903 20.9055 141.637 20.7209 141.307 20.5788C140.977 20.4368 140.62 20.3125 140.236 20.206L138.894 19.8224C138.042 19.5774 137.367 19.2276 136.87 18.7731C136.373 18.3185 136.124 17.7237 136.124 16.9886C136.124 16.3778 136.289 15.8452 136.619 15.3906C136.953 14.9325 137.401 14.5774 137.962 14.3253C138.526 14.0696 139.157 13.9418 139.853 13.9418C140.556 13.9418 141.181 14.0678 141.728 14.32C142.275 14.5685 142.708 14.9094 143.027 15.3427C143.351 15.7759 143.521 16.2678 143.539 16.8182H142.26ZM149.46 25V14.0909H150.781V18.9489H156.598V14.0909H157.919V25H156.598V20.1207H150.781V25H149.46ZM164.163 25V14.0909H165.484V23.8281H170.555V25H164.163ZM177.337 25H175.952L179.958 14.0909H181.321L185.327 25H183.942L180.682 15.8168H180.597L177.337 25ZM177.848 20.7386H183.431V21.9105H177.848V20.7386ZM190.626 25V14.0909H194.44C195.2 14.0909 195.827 14.2223 196.32 14.4851C196.814 14.7443 197.181 15.0941 197.423 15.5344C197.664 15.9712 197.785 16.456 197.785 16.9886C197.785 17.4574 197.702 17.8445 197.535 18.1499C197.371 18.4553 197.155 18.6967 196.885 18.8743C196.619 19.0518 196.329 19.1832 196.017 19.2685V19.375C196.351 19.3963 196.686 19.5135 197.023 19.7266C197.361 19.9396 197.643 20.245 197.87 20.6428C198.098 21.0405 198.211 21.527 198.211 22.1023C198.211 22.6491 198.087 23.141 197.838 23.5778C197.59 24.0146 197.197 24.3608 196.661 24.6165C196.125 24.8722 195.427 25 194.568 25H190.626ZM191.947 23.8281H194.568C195.431 23.8281 196.043 23.6612 196.406 23.3274C196.771 22.9901 196.954 22.5817 196.954 22.1023C196.954 21.733 196.86 21.392 196.672 21.0795C196.484 20.7635 196.216 20.5114 195.868 20.3232C195.52 20.1314 195.108 20.0355 194.632 20.0355H191.947V23.8281ZM191.947 18.8849H194.397C194.795 18.8849 195.154 18.8068 195.473 18.6506C195.797 18.4943 196.052 18.2741 196.24 17.9901C196.432 17.706 196.528 17.3722 196.528 16.9886C196.528 16.5092 196.361 16.1026 196.027 15.7688C195.694 15.4315 195.164 15.2628 194.44 15.2628H191.947V18.8849ZM209.948 16.8182C209.884 16.2784 209.625 15.8594 209.17 15.5611C208.716 15.2628 208.158 15.1136 207.498 15.1136C207.015 15.1136 206.592 15.1918 206.23 15.348C205.871 15.5043 205.591 15.7191 205.388 15.9925C205.189 16.266 205.09 16.5767 205.09 16.9247C205.09 17.2159 205.159 17.4663 205.298 17.6758C205.44 17.8817 205.621 18.054 205.841 18.1925C206.061 18.3274 206.292 18.4393 206.533 18.5281C206.775 18.6133 206.997 18.6825 207.199 18.7358L208.307 19.0341C208.591 19.1087 208.907 19.2116 209.255 19.343C209.607 19.4744 209.943 19.6538 210.262 19.881C210.585 20.1048 210.852 20.3924 211.061 20.744C211.271 21.0955 211.375 21.527 211.375 22.0384C211.375 22.6278 211.221 23.1605 210.912 23.6364C210.607 24.1122 210.159 24.4904 209.57 24.771C208.984 25.0515 208.272 25.1918 207.434 25.1918C206.652 25.1918 205.976 25.0657 205.404 24.8136C204.836 24.5614 204.389 24.2099 204.062 23.7589C203.739 23.3079 203.556 22.7841 203.513 22.1875H204.877C204.912 22.5994 205.051 22.9403 205.292 23.2102C205.537 23.4766 205.846 23.6754 206.219 23.8068C206.596 23.9347 207 23.9986 207.434 23.9986C207.938 23.9986 208.391 23.9169 208.792 23.7536C209.193 23.5866 209.511 23.3558 209.745 23.0611C209.98 22.7628 210.097 22.4148 210.097 22.017C210.097 21.6548 209.996 21.3601 209.793 21.1328C209.591 20.9055 209.325 20.7209 208.994 20.5788C208.664 20.4368 208.307 20.3125 207.924 20.206L206.581 19.8224C205.729 19.5774 205.054 19.2276 204.557 18.7731C204.06 18.3185 203.812 17.7237 203.812 16.9886C203.812 16.3778 203.977 15.8452 204.307 15.3906C204.641 14.9325 205.088 14.5774 205.649 14.3253C206.214 14.0696 206.844 13.9418 207.54 13.9418C208.243 13.9418 208.868 14.0678 209.415 14.32C209.962 14.5685 210.395 14.9094 210.715 15.3427C211.038 15.7759 211.209 16.2678 211.226 16.8182H209.948ZM224.966 25V14.0909H226.223V18.1179H226.33C226.422 17.9759 226.55 17.7947 226.713 17.5746C226.88 17.3509 227.118 17.152 227.427 16.978C227.74 16.8004 228.162 16.7116 228.695 16.7116C229.384 16.7116 229.991 16.8839 230.517 17.2283C231.042 17.5728 231.452 18.0611 231.747 18.6932C232.042 19.3253 232.189 20.071 232.189 20.9304C232.189 21.7969 232.042 22.5479 231.747 23.1836C231.452 23.8157 231.044 24.3058 230.522 24.6538C230 24.9982 229.398 25.1705 228.716 25.1705C228.191 25.1705 227.77 25.0835 227.454 24.9094C227.138 24.7319 226.894 24.5312 226.724 24.3075C226.553 24.0803 226.422 23.892 226.33 23.7429H226.181V25H224.966ZM226.202 20.9091C226.202 21.527 226.292 22.0721 226.474 22.5444C226.655 23.0131 226.919 23.3807 227.267 23.647C227.615 23.9098 228.041 24.0412 228.546 24.0412C229.071 24.0412 229.51 23.9027 229.861 23.6257C230.216 23.3452 230.483 22.9687 230.66 22.4964C230.841 22.0206 230.932 21.4915 230.932 20.9091C230.932 20.3338 230.843 19.8153 230.666 19.3537C230.492 18.8885 230.227 18.521 229.872 18.2511C229.52 17.9776 229.078 17.8409 228.546 17.8409C228.034 17.8409 227.605 17.9705 227.257 18.2298C226.909 18.4854 226.646 18.8441 226.468 19.3058C226.291 19.7638 226.202 20.2983 226.202 20.9091ZM238.229 28.0682C238.016 28.0682 237.826 28.0504 237.659 28.0149C237.492 27.983 237.377 27.951 237.313 27.919L237.632 26.8111C237.938 26.8892 238.207 26.9176 238.442 26.8963C238.676 26.875 238.884 26.7702 239.065 26.582C239.25 26.3974 239.418 26.0973 239.571 25.6818L239.805 25.0426L236.78 16.8182H238.144L240.402 23.3381H240.487L242.746 16.8182H244.109L240.636 26.1932C240.48 26.6158 240.287 26.9656 240.056 27.2425C239.825 27.5231 239.557 27.7308 239.252 27.8658C238.95 28.0007 238.609 28.0682 238.229 28.0682ZM260.724 25H257.358V14.0909H260.874C261.932 14.0909 262.837 14.3093 263.59 14.7461C264.343 15.1793 264.92 15.8026 265.321 16.6158C265.723 17.4254 265.923 18.3949 265.923 19.5241C265.923 20.6605 265.721 21.6388 265.316 22.4592C264.911 23.2759 264.322 23.9045 263.548 24.3448C262.773 24.7816 261.832 25 260.724 25ZM258.679 23.8281H260.639C261.541 23.8281 262.289 23.6541 262.882 23.3061C263.475 22.9581 263.917 22.4627 264.208 21.82C264.499 21.1772 264.645 20.4119 264.645 19.5241C264.645 18.6435 264.501 17.8853 264.213 17.2496C263.926 16.6104 263.496 16.1204 262.924 15.7795C262.353 15.435 261.641 15.2628 260.788 15.2628H258.679V23.8281ZM271.739 25V14.0909H278.323V15.2628H273.06V18.9489H277.982V20.1207H273.06V23.8281H278.408V25H271.739ZM284.304 25V14.0909H285.625V23.8281H290.696V25H284.304ZM296.342 25V14.0909H300.028C300.883 14.0909 301.583 14.2454 302.126 14.5543C302.673 14.8597 303.078 15.2734 303.341 15.7955C303.604 16.3175 303.735 16.8999 303.735 17.5426C303.735 18.1854 303.604 18.7695 303.341 19.2951C303.082 19.8207 302.68 20.2397 302.137 20.5522C301.594 20.8612 300.898 21.0156 300.049 21.0156H297.407V19.8438H300.006C300.592 19.8438 301.063 19.7425 301.418 19.5401C301.773 19.3377 302.03 19.0643 302.19 18.7198C302.354 18.3718 302.435 17.9794 302.435 17.5426C302.435 17.1058 302.354 16.7152 302.19 16.3707C302.03 16.0263 301.771 15.7564 301.413 15.5611C301.054 15.3622 300.578 15.2628 299.985 15.2628H297.663V25H296.342ZM309.463 25V14.0909H310.784V18.9489H316.601V14.0909H317.922V25H316.601V20.1207H310.784V25H309.463ZM325.488 14.0909V25H324.167V14.0909H325.488ZM340.387 14.0909V25H339.108L333.164 16.4347H333.057V25H331.736V14.0909H333.015L338.981 22.6776H339.087V14.0909H340.387ZM346.63 25V14.0909H353.214V15.2628H347.951V18.9489H352.873V20.1207H347.951V23.8281H353.299V25H346.63ZM367.014 25V14.0909H368.335V23.8281H373.406V25H367.014ZM380.372 14.0909V25H379.051V14.0909H380.372ZM386.621 25V14.0909H393.205V15.2628H387.942V18.9489H392.864V20.1207H387.942V23.8281H393.29V25H386.621ZM406.345 14.0909H407.666V21.3139C407.666 22.0597 407.49 22.7255 407.139 23.3114C406.791 23.8938 406.299 24.3537 405.663 24.6911C405.027 25.0249 404.282 25.1918 403.426 25.1918C402.57 25.1918 401.824 25.0249 401.189 24.6911C400.553 24.3537 400.059 23.8938 399.708 23.3114C399.36 22.7255 399.186 22.0597 399.186 21.3139V14.0909H400.507V21.2074C400.507 21.7401 400.624 22.2141 400.858 22.6296C401.093 23.0415 401.427 23.3665 401.86 23.6044C402.297 23.8388 402.819 23.956 403.426 23.956C404.033 23.956 404.555 23.8388 404.992 23.6044C405.429 23.3665 405.763 23.0415 405.993 22.6296C406.228 22.2141 406.345 21.7401 406.345 21.2074V14.0909Z" fill="white"/>
</svg>
